<?xml version="1.0" encoding="UTF-8" standalone="no"?>
<svg
   xmlns:dc="http://purl.org/dc/elements/1.1/"
   xmlns:cc="http://creativecommons.org/ns#"
   xmlns:rdf="http://www.w3.org/1999/02/22-rdf-syntax-ns#"
   xmlns:svg="http://www.w3.org/2000/svg"
   xmlns="http://www.w3.org/2000/svg"
   viewBox="0 0 32 32"
   height="32"
   width="32"
   xml:space="preserve"
   id="svg2"
   version="1.1"><metadata
     id="metadata8"><rdf:RDF><cc:Work
         rdf:about=""><dc:format>image/svg+xml</dc:format><dc:type
           rdf:resource="http://purl.org/dc/dcmitype/StillImage" /></cc:Work></rdf:RDF></metadata><defs
     id="defs6"><clipPath
       id="clipPath20"
       clipPathUnits="userSpaceOnUse"><path
         style="clip-rule:evenodd"
         id="path18"
         d="m 5.800109,14.95359 c -0.08714,0.08719 -0.208078,0.13739 -0.331359,0.13739 -0.123281,0 -0.244219,-0.05015 -0.331406,-0.13739 C 5.050156,14.86598 5,14.74552 5,14.62177 5,14.49844 5.050109,14.37802 5.137344,14.29036 5.224531,14.20312 5.345469,14.15302 5.46875,14.15302 c 0.123281,0 0.244219,0.0501 0.331359,0.13734 0.087188,0.08714 0.137391,0.20808 0.137391,0.33141 0,0.12375 -0.050156,0.24468 -0.137391,0.33182 z" /></clipPath><clipPath
       id="clipPath26"
       clipPathUnits="userSpaceOnUse"><path
         id="path24"
         d="M -204,-607 H 1059 V 656 H -204 Z" /></clipPath><clipPath
       id="clipPath36"
       clipPathUnits="userSpaceOnUse"><path
         style="clip-rule:evenodd"
         id="path34"
         d="m 16.80673,8.884313 c 0.88529,0.386812 1.50577,1.270457 1.50577,2.296637 v 6.1628 C 18.3125,21.01402 15.32652,24 11.65625,24 7.985984,24 5,21.01402 5,17.34375 v -0.70313 c 0,-0.25884 0.209906,-0.46874 0.46875,-0.46874 0.258844,0 0.46875,0.2099 0.46875,0.46874 v 0.70313 c 0,3.15333 2.565422,5.71875 5.71875,5.71875 3.15333,0 5.71875,-2.56542 5.71875,-5.71875 v -6.1628 c 0,-0.86447 -0.70331,-1.567825 -1.56783,-1.567825 h -1.92309 c 0.01425,0.102187 0.02217,0.206344 0.02217,0.312375 v 1.24078 c 0,0.0072 -7.5e-4,0.01416 -0.0011,0.02128 1.34461,0.77907 2.25108,2.23388 2.25108,3.89653 v 1.60693 c 0,1.08557 -0.88317,1.96875 -1.96875,1.96875 h -5.0625 c -1.085578,0 -1.96875,-0.88318 -1.96875,-1.96875 v -1.60693 c 0,-1.66265 0.906469,-3.11746 2.251078,-3.89653 C 9.407,11.18048 9.40625,11.17345 9.40625,11.16628 V 9.9255 c 0,-0.106031 0.00792,-0.210187 0.022172,-0.312375 H 7.505328 C 6.640812,9.613125 5.9375,10.31644 5.9375,11.18095 V 12.75 c 0,0.25884 -0.209906,0.46875 -0.46875,0.46875 C 5.209906,13.21875 5,13.00884 5,12.75 V 11.18095 C 5,10.15472 5.620484,9.271078 6.505766,8.884266 3.846922,7.641797 2,4.942125 2,1.818797 V 0.46875 C 2,0.2099062 2.209906,0 2.46875,0 h 18.375 c 0.25884,0 0.46875,0.2099062 0.46875,0.46875 v 1.350047 c 0,3.123328 -1.84692,5.823 -4.50577,7.065516 z M 8.09375,15.08409 v 1.60693 c 0,0.56864 0.462609,1.03125 1.03125,1.03125 h 5.0625 c 0.56864,0 1.03125,-0.46261 1.03125,-1.03125 v -1.60693 c 0,-1.96434 -1.59816,-3.5625 -3.5625,-3.5625 -1.964344,0 -3.5625,1.59816 -3.5625,3.5625 z m 4.875,-4.30457 V 9.9255 c 0,-0.723703 -0.5888,-1.3125 -1.3125,-1.3125 -0.7237,0 -1.3125,0.588797 -1.3125,1.3125 v 0.85402 c 0.41541,-0.12689 0.85608,-0.19543 1.3125,-0.19543 0.45642,0 0.89709,0.06853 1.3125,0.19543 z M 9.786453,8.675531 C 10.19056,8.073 10.8778,7.6755 11.65625,7.6755 c 0.77845,0 1.46569,0.397453 1.8698,1.000031 0.45333,-5.15e-4 0.89634,-0.045562 1.32525,-0.130406 L 11.65625,3.011109 8.461203,8.545078 c 0.428906,0.084891 0.871922,0.129938 1.32525,0.130453 z M 20.375,0.9375 h -1.88944 v 1.640625 c 0,0.258844 -0.2099,0.46875 -0.46875,0.46875 -0.25884,0 -0.46875,-0.209906 -0.46875,-0.46875 V 0.9375 H 5.764437 v 3.020719 c 0,0.258843 -0.209906,0.46875 -0.46875,0.46875 -0.258843,0 -0.46875,-0.209907 -0.46875,-0.46875 V 0.9375 H 2.9375 v 0.881297 c 0,2.986265 1.919156,5.532328 4.588687,6.470812 L 11.25031,1.839281 c 0.08372,-0.145031 0.2385,-0.234375 0.40594,-0.234375 0.16744,0 0.32222,0.089344 0.40594,0.234375 l 3.72412,6.450328 C 18.45584,7.351125 20.375,4.805062 20.375,1.818797 Z" /></clipPath><clipPath
       id="clipPath42"
       clipPathUnits="userSpaceOnUse"><path
         id="path40"
         d="M -204,-607 H 1059 V 656 H -204 Z" /></clipPath><clipPath
       id="clipPath52"
       clipPathUnits="userSpaceOnUse"><path
         style="clip-rule:evenodd"
         id="path50"
         d="m 10.29402,15.52828 c -0.08715,0.08719 -0.20808,0.13735 -0.331364,0.13735 -0.123281,0 -0.24375,-0.05016 -0.331406,-0.13735 -0.087187,-0.08719 -0.136875,-0.2077 -0.136875,-0.3314 0,-0.12329 0.049688,-0.24422 0.136875,-0.33141 0.087656,-0.08714 0.208125,-0.13734 0.331406,-0.13734 0.123754,0 0.244224,0.05015 0.331364,0.13734 0.08765,0.08719 0.13781,0.20812 0.13781,0.33141 0,0.12328 -0.05016,0.24421 -0.13781,0.3314 z" /></clipPath><clipPath
       id="clipPath58"
       clipPathUnits="userSpaceOnUse"><path
         id="path56"
         d="M -204,-607 H 1059 V 656 H -204 Z" /></clipPath><clipPath
       id="clipPath68"
       clipPathUnits="userSpaceOnUse"><path
         style="clip-rule:evenodd"
         id="path66"
         d="m 13.69297,15.52828 c -0.08719,0.08714 -0.20813,0.13735 -0.33141,0.13735 -0.12328,0 -0.24422,-0.05016 -0.3314,-0.13735 -0.08714,-0.08719 -0.13735,-0.20812 -0.13735,-0.3314 0,-0.12329 0.05016,-0.24422 0.13735,-0.33141 0.08718,-0.08714 0.20812,-0.13734 0.3314,-0.13734 0.12328,0 0.24422,0.05015 0.33141,0.13734 0.08714,0.08719 0.13734,0.20812 0.13734,0.33141 0,0.12328 -0.05015,0.24421 -0.13734,0.3314 z" /></clipPath><clipPath
       id="clipPath74"
       clipPathUnits="userSpaceOnUse"><path
         id="path72"
         d="M -204,-607 H 1059 V 656 H -204 Z" /></clipPath><clipPath
       id="clipPath84"
       clipPathUnits="userSpaceOnUse"><path
         style="clip-rule:evenodd"
         id="path82"
         d="m 12.34738,13.79302 c -0.1831,0.183 -0.47982,0.183 -0.66296,0 -0.04772,-0.04772 -0.12534,-0.04772 -0.17311,0 -0.18304,0.18309 -0.4799,0.18304 -0.6629,-5e-5 -0.18305,-0.18305 -0.183,-0.47986 4e-5,-0.66291 0.20663,-0.20662 0.47803,-0.30989 0.74944,-0.30989 0.27141,0 0.54281,0.10331 0.74944,0.30989 0.18309,0.1831 0.18309,0.47991 5e-5,0.66296 z" /></clipPath><clipPath
       id="clipPath90"
       clipPathUnits="userSpaceOnUse"><path
         id="path88"
         d="M -204,-607 H 1059 V 656 H -204 Z" /></clipPath><clipPath
       id="clipPath100"
       clipPathUnits="userSpaceOnUse"><path
         style="clip-rule:evenodd"
         id="path98"
         d="m 18.34808,4.758234 c -0.08719,0.087235 -0.20761,0.137391 -0.33141,0.137391 -0.12328,0 -0.24422,-0.050156 -0.33136,-0.137391 -0.08719,-0.08714 -0.13739,-0.207656 -0.13739,-0.331359 0,-0.123281 0.05016,-0.244219 0.13739,-0.331406 0.08766,-0.087188 0.20808,-0.137344 0.33136,-0.137344 0.12328,0 0.24422,0.050109 0.33141,0.137344 0.08719,0.087234 0.13734,0.208125 0.13734,0.331406 0,0.123281 -0.05011,0.244219 -0.13734,0.331359 z" /></clipPath><clipPath
       id="clipPath106"
       clipPathUnits="userSpaceOnUse"><path
         id="path104"
         d="M -204,-607 H 1059 V 656 H -204 Z" /></clipPath></defs><g
     transform="matrix(1.3333333,0,0,-1.3333333,0,32)"
     id="g10"><g
       id="g12" /><g
       id="g14"><g
         clip-path="url(#clipPath20)"
         id="g16"><g
           clip-path="url(#clipPath26)"
           id="g22"><path
             id="path28"
             style="fill:#fa9c93;fill-opacity:1;fill-rule:nonzero;stroke:none"
             d="M 0,20.09098 H 10.9375 V 9.153016 H 0 Z" /></g></g></g><g
       id="g30"><g
         clip-path="url(#clipPath36)"
         id="g32"><g
           clip-path="url(#clipPath42)"
           id="g38"><path
             id="path44"
             style="fill:#fa9c93;fill-opacity:1;fill-rule:nonzero;stroke:none"
             d="M -3,29 H 26.3125 V -5 H -3 Z" /></g></g></g><g
       id="g46"><g
         clip-path="url(#clipPath52)"
         id="g48"><g
           clip-path="url(#clipPath58)"
           id="g54"><path
             id="path60"
             style="fill:#fa9c93;fill-opacity:1;fill-rule:nonzero;stroke:none"
             d="M 4.494375,20.66562 H 15.43183 V 9.728125 H 4.494375 Z" /></g></g></g><g
       id="g62"><g
         clip-path="url(#clipPath68)"
         id="g64"><g
           clip-path="url(#clipPath74)"
           id="g70"><path
             id="path76"
             style="fill:#fa9c93;fill-opacity:1;fill-rule:nonzero;stroke:none"
             d="M 7.892812,20.66562 H 18.83031 V 9.728125 H 7.892812 Z" /></g></g></g><g
       id="g78"><g
         clip-path="url(#clipPath84)"
         id="g80"><g
           clip-path="url(#clipPath90)"
           id="g86"><path
             id="path92"
             style="fill:#fa9c93;fill-opacity:1;fill-rule:nonzero;stroke:none"
             d="M 5.711145,18.93031 H 17.48465 V 7.820172 H 5.711145 Z" /></g></g></g><g
       id="g94"><g
         clip-path="url(#clipPath100)"
         id="g96"><g
           clip-path="url(#clipPath106)"
           id="g102"><path
             id="path108"
             style="fill:#fa9c93;fill-opacity:1;fill-rule:nonzero;stroke:none"
             d="m 12.54792,9.895625 h 10.9375 v -10.9375 h -10.9375 z" /></g></g></g></g></svg>